HIERARCHY
ROOT Hips
{
 OFFSET 0.000000 0.000000 0.000000
 CHANNELS 6 Xposition Yposition Zposition Yrotation Xrotation Zrotation
 JOINT Chest
 {
  OFFSET 0.000000 9.585900 0.002600
  CHANNELS 3 Yrotation Xrotation Zrotation
  JOINT Chest2
  {
   OFFSET 0.000000 9.601200 -0.005300
   CHANNELS 3 Yrotation Xrotation Zrotation
   JOINT Chest3
   {
    OFFSET 0.000000 9.561800 0.000000
    CHANNELS 3 Yrotation Xrotation Zrotation
    JOINT Chest4
    {
     OFFSET 0.000000 9.552100 0.000000
     CHANNELS 3 Yrotation Xrotation Zrotation
     JOINT Neck
     {
      OFFSET 0.000000 14.453000 0.000000
      CHANNELS 3 Yrotation Xrotation Zrotation
      JOINT Head
      {
       OFFSET 0.000000 8.936500 -0.011300
       CHANNELS 3 Yrotation Xrotation Zrotation
       End Site
       {
        OFFSET 0.000000 17.073600 -0.006000
       }
      }
     }
     JOINT RightCollar
     {
      OFFSET -2.921100 9.558500 0.000000
      CHANNELS 3 Yrotation Xrotation Zrotation
      JOINT RightShoulder
      {
       OFFSET -13.519700 0.000000 0.000000
       CHANNELS 3 Yrotation Xrotation Zrotation
       JOINT RightElbow
       {
        OFFSET 0.000000 -29.696600 0.000000
        CHANNELS 3 Yrotation Xrotation Zrotation
        JOINT RightWrist
        {
         OFFSET 0.000000 -24.004700 0.000000
         CHANNELS 3 Yrotation Xrotation Zrotation
         End Site
         {
          OFFSET 0.000000 -17.728500 0.000000
         }
        }
       }
      }
     }
     JOINT LeftCollar
     {
      OFFSET 2.921100 9.558500 0.000000
      CHANNELS 3 Yrotation Xrotation Zrotation
      JOINT LeftShoulder
      {
       OFFSET 13.519700 0.000000 0.000000
       CHANNELS 3 Yrotation Xrotation Zrotation
       JOINT LeftElbow
       {
        OFFSET 0.000000 -29.696600 0.000000
        CHANNELS 3 Yrotation Xrotation Zrotation
        JOINT LeftWrist
        {
         OFFSET 0.000000 -24.004700 0.000000
         CHANNELS 3 Yrotation Xrotation Zrotation
         End Site
         {
          OFFSET 0.000000 -17.728500 0.000000
         }
        }
       }
      }
     }
    }
   }
  }
 }
 JOINT RightHip
 {
  OFFSET -7.771700 -0.012900 -0.001300
  CHANNELS 3 Yrotation Xrotation Zrotation
  JOINT RightKnee
  {
   OFFSET 0.000000 -40.869800 0.001200
   CHANNELS 3 Yrotation Xrotation Zrotation
   JOINT RightAnkle
   {
    OFFSET 0.000000 -39.717900 0.002100
    CHANNELS 3 Yrotation Xrotation Zrotation
    JOINT RightToe
    {
     OFFSET 0.000000 -4.965400 11.033500
     CHANNELS 3 Yrotation Xrotation Zrotation
     End Site
     {
      OFFSET 0.000000 -1.423100 5.872300
     }
    }
   }
  }
 }
 JOINT LeftHip
 {
  OFFSET 7.771700 -0.012900 -0.001300
  CHANNELS 3 Yrotation Xrotation Zrotation
  JOINT LeftKnee
  {
   OFFSET 0.000000 -40.869800 0.001200
   CHANNELS 3 Yrotation Xrotation Zrotation
   JOINT LeftAnkle
   {
    OFFSET 0.000000 -39.717900 0.002100
    CHANNELS 3 Yrotation Xrotation Zrotation
    JOINT LeftToe
    {
     OFFSET 0.000000 -4.965400 11.033500
     CHANNELS 3 Yrotation Xrotation Zrotation
     End Site
     {
      OFFSET 0.000000 -1.423100 5.872300
     }
    }
   }
  }
 }
}
MOTION
Frames: 13
Frame Time: 0.008333
0.000000 85.388000 0.000000 0.000000 -5.767877 0.000000 0.000000 11.653817 0.000000 0.000000 -5.885947 0.000000 0.000000 -0.000000 0.000000 0.000000 -0.000000 0.000000 0.000000 12.528835 0.000000 0.000000 0.711642 0.000000 0.000000 -0.000000 0.000000 0.000000 0.000000 -90.000000 0.000000 -2.309062 0.000000 0.000000 2.309062 0.000000 0.000000 -0.000000 0.000000 0.000000 -0.000000 90.000000 0.000000 -2.309062 0.000000 0.000000 2.309062 0.000000 0.000000 8.520406 0.000000 0.000000 1.905762 0.000000 -0.000000 -4.658285 0.000000 0.000000 -0.000000 0.000000 0.000000 8.520406 0.000000 0.000000 1.905762 0.000000 -0.000000 -4.658285 0.000000 0.000000 -0.000000 0.000000
-0.107636 50.039932 39.256464 173.558432 -31.394393 -5.681944 7.070927 20.141486 7.174336 0.852484 2.821914 0.696287 1.383365 4.565591 1.197258 5.937625 17.162240 5.193087 -2.278783 21.404062 3.086009 -5.048791 4.021484 6.155296 -5.219102 -0.129029 -7.101935 8.385010 5.900339 -1.207215 -121.002690 -40.230493 141.617612 -12.652451 -7.992926 41.133554 -5.893306 0.284298 0.913563 1.875559 -3.432058 -0.791843 106.414245 -37.644596 -141.271405 28.925173 19.506565 -58.612804 -2.440549 -48.822365 8.873194 -102.075777 83.770384 -89.705398 0.985295 -11.692579 -6.686088 -0.401272 0.897627 -0.164179 -9.784050 -53.438117 15.665481 -146.023378 83.939585 -154.171612 -0.259338 -12.876463 7.117990 -0.124156 -0.601658 -0.038294
-0.112415 50.040487 39.264626 173.567448 -31.416033 -5.680263 7.052815 20.154916 7.177827 0.841077 2.825367 0.720830 1.390458 4.588835 1.188770 5.930839 17.224260 5.225611 -2.308824 21.321195 3.012186 -5.080270 3.907800 6.078447 -5.181909 -0.205445 -7.138858 8.384956 5.871478 -1.194259 -121.154531 -40.291539 141.640083 -12.652207 -7.984035 41.097715 -5.967277 0.243500 0.900605 1.865531 -3.443527 -0.767308 106.381909 -37.576542 -141.216521 28.950665 19.521323 -58.502879 -2.431876 -48.804749 8.863878 -102.027891 83.763360 -89.659705 0.973045 -11.690006 -6.689280 -0.381277 0.898784 -0.156274 -9.759526 -53.417037 15.632197 -146.077485 83.962506 -154.215569 -0.269794 -12.875222 7.112882 -0.124079 -0.592477 -0.038052
-0.115805 50.042437 39.271980 173.558241 -31.448884 -5.677765 7.055200 20.180753 7.192723 0.840752 2.831147 0.722945 1.393528 4.594726 1.184031 5.930665 17.229589 5.222344 -2.329723 21.293035 2.993165 -5.102762 3.797344 6.001478 -5.124166 -0.259221 -7.094599 8.321452 5.877349 -1.214777 -121.292927 -40.358280 141.680370 -12.653221 -7.982986 41.036940 -6.006194 0.220717 0.915335 1.833813 -3.440752 -0.739192 106.309231 -37.540637 -141.154257 28.991238 19.527506 -58.387320 -2.408913 -48.777715 8.868544 -101.914037 83.749245 -89.551035 0.960202 -11.678973 -6.679825 -0.368562 0.897264 -0.152923 -9.729151 -53.381775 15.610024 -146.134836 83.984563 -154.261942 -0.273930 -12.879884 7.103073 -0.126925 -0.583981 -0.037169
-0.119043 50.043821 39.280723 173.553024 -31.466879 -5.678654 7.052968 20.196490 7.208289 0.842209 2.835714 0.721739 1.395271 4.596292 1.180815 5.924690 17.246789 5.241243 -2.348867 21.241986 2.947572 -5.124406 3.682653 5.923291 -5.095752 -0.317467 -7.107657 8.283113 5.847708 -1.205046 -121.455089 -40.440796 141.750388 -12.657045 -7.996390 40.955362 -6.034957 0.163488 0.905985 1.813979 -3.435464 -0.717228 106.226784 -37.521017 -141.102489 29.049157 19.525774 -58.272804 -2.393407 -48.763348 8.870868 -101.792823 83.750859 -89.434783 0.953467 -11.669098 -6.670537 -0.369529 0.899534 -0.152953 -9.718833 -53.363009 15.606137 -146.103762 83.999885 -154.228843 -0.272131 -12.872670 7.102243 -0.126965 -0.585668 -0.041837
-0.121814 50.045074 39.289376 173.560312 -31.473896 -5.686959 7.045836 20.205153 7.217388 0.841413 2.836395 0.722588 1.377281 4.604151 1.202725 5.924205 17.251480 5.233312 -2.365061 21.188774 2.901719 -5.141857 3.557847 5.844934 -5.063467 -0.374886 -7.120774 8.243750 5.806133 -1.192600 -121.655135 -40.542403 141.849511 -12.663046 -8.021917 40.864778 -6.055809 0.097975 0.896105 1.785576 -3.429933 -0.694163 106.157293 -37.509716 -141.060464 29.095860 19.501415 -58.170904 -2.392279 -48.757919 8.873914 -101.691074 83.750678 -89.336990 0.951918 -11.658205 -6.660756 -0.369512 0.898296 -0.154612 -9.720290 -53.356139 15.604139 -146.057224 84.013651 -154.177233 -0.269518 -12.866401 7.102216 -0.127600 -0.583969 -0.045718
-0.124728 50.046546 39.296273 173.551992 -31.479403 -5.682377 7.046941 20.212798 7.219841 0.840784 2.836719 0.723437 1.374534 4.603303 1.203375 5.913359 17.256282 5.250923 -2.404649 21.057441 2.833040 -5.139382 3.498099 5.771116 -5.028780 -0.437782 -7.136719 8.213870 5.756729 -1.182392 -121.899985 -40.660096 141.972100 -12.670652 -8.053242 40.782381 -6.074215 0.022784 0.881388 1.750245 -3.429397 -0.673173 106.107891 -37.509695 -141.026090 29.111333 19.439323 -58.085896 -2.380498 -48.754858 8.874370 -101.596694 83.745445 -89.255367 0.966878 -11.651084 -6.642796 -0.379119 0.902312 -0.162884 -9.711016 -53.347765 15.608139 -146.018603 84.026643 -154.144315 -0.280147 -12.859458 7.108765 -0.126168 -0.582187 -0.047724
-0.125724 50.049760 39.298675 173.543658 -31.501732 -5.683156 7.037638 20.237078 7.228554 0.839666 2.836481 0.724315 1.383911 4.603077 1.199211 5.899067 17.255035 5.262818 -2.405380 21.023040 2.795856 -5.164875 3.331868 5.697802 -4.989955 -0.506287 -7.146710 8.197973 5.707169 -1.174933 -122.185994 -40.791794 142.110868 -12.675617 -8.089603 40.726565 -6.071789 -0.013662 0.863147 1.690699 -3.480219 -0.648937 106.087900 -37.525064 -141.000073 29.208882 19.434112 -57.964561 -2.353638 -48.735993 8.873058 -101.538086 83.737388 -89.195497 0.968303 -11.640998 -6.631657 -0.381248 0.898235 -0.165222 -9.699853 -53.321362 15.612630 -145.906857 84.029301 -154.034995 -0.274848 -12.855787 7.113452 -0.126755 -0.585043 -0.050167
-0.125808 50.052647 39.298990 173.542869 -31.521839 -5.688913 7.024665 20.233634 7.240484 0.838075 2.838227 0.725468 1.381367 4.605621 1.200947 5.862241 17.231306 5.272917 -2.412971 20.955131 2.731455 -5.169234 3.238243 5.631378 -4.928189 -0.545540 -7.172544 8.191170 5.663673 -1.165427 -122.492406 -40.932975 142.254340 -12.671728 -8.128080 40.708428 -6.082904 -0.086607 0.834704 1.662223 -3.465719 -0.630878 106.104028 -37.559811 -140.989057 29.307650 19.426509 -57.850686 -2.339585 -48.719773 8.891937 -101.476698 83.720381 -89.145716 0.945973 -11.632287 -6.610385 -0.371132 0.893260 -0.162224 -9.697994 -53.297061 15.621041 -145.800637 84.029280 -153.931190 -0.271841 -12.851433 7.121552 -0.127630 -0.591038 -0.055482
-0.127046 50.054085 39.297893 173.552314 -31.532469 -5.689441 6.995446 20.211903 7.237555 0.828237 2.803943 0.733188 1.383479 4.640862 1.195637 5.831302 17.210852 5.270051 -2.419414 20.885386 2.686325 -5.163125 3.160036 5.571221 -4.869507 -0.589051 -7.183555 8.188756 5.628964 -1.153607 -122.793968 -41.072706 142.390119 -12.655604 -8.155892 40.727375 -6.099274 -0.164138 0.814271 1.638860 -3.448333 -0.605720 106.151164 -37.610918 -140.995846 29.403442 19.401746 -57.752024 -2.339015 -48.709278 8.887322 -101.493648 83.719706 -89.172908 0.950155 -11.630639 -6.598814 -0.378382 0.890445 -0.165468 -9.695221 -53.284617 15.612468 -145.750704 84.030523 -153.882877 -0.268082 -12.846372 7.124873 -0.123246 -0.597458 -0.056634
-0.126792 50.054189 39.295747 173.556599 -31.535626 -5.693080 6.988404 20.186897 7.246812 0.823787 2.814918 0.727822 1.374406 4.618058 1.198832 5.793164 17.189495 5.263288 -2.417342 20.838734 2.655889 -5.153248 3.071285 5.517850 -4.812373 -0.642460 -7.187045 8.187206 5.602295 -1.143533 -123.067842 -41.205995 142.512415 -12.630082 -8.168291 40.772978 -6.109562 -0.224398 0.791062 1.617152 -3.456970 -0.573523 106.212372 -37.672609 -141.013960 29.418188 19.379907 -57.710627 -2.330259 -48.711167 8.888989 -101.553647 83.710491 -89.232550 0.940679 -11.628298 -6.594324 -0.370318 0.883913 -0.160890 -9.699473 -53.282070 15.619238 -145.623740 84.021599 -153.760505 -0.248325 -12.840189 7.133952 -0.130935 -0.606094 -0.062968
-0.126590 50.053261 39.291616 173.570202 -31.535023 -5.697814 6.964537 20.158625 7.246389 0.809624 2.800530 0.724733 1.350815 4.574749 1.197494 5.778660 17.204527 5.261285 -2.410438 20.797136 2.627757 -5.134983 2.991861 5.466993 -4.750567 -0.694683 -7.187419 8.183862 5.577911 -1.141196 -123.300444 -41.330844 142.615482 -12.603054 -8.168610 40.833797 -6.117967 -0.286594 0.760412 1.610855 -3.465251 -0.537543 106.275944 -37.740413 -141.039030 29.435284 19.339412 -57.655817 -2.332923 -48.716215 8.885963 -101.655843 83.702540 -89.334669 0.932712 -11.624186 -6.594988 -0.361322 0.872491 -0.155858 -9.705345 -53.281504 15.619651 -145.539980 84.013559 -153.680127 -0.239384 -12.845038 7.140382 -0.131804 -0.605114 -0.064215
-0.125638 50.050293 39.287909 173.580721 -31.516238 -5.703796 6.937339 20.118716 7.241222 0.797038 2.780524 0.723518 1.336804 4.551493 1.194435 5.754012 17.188779 5.260181 -2.400001 20.755126 2.598020 -5.109777 2.911471 5.412273 -4.684072 -0.740387 -7.183112 8.176332 5.548227 -1.152755 -123.492462 -41.442076 142.694348 -12.579638 -8.160444 40.901408 -6.120215 -0.351206 0.722616 1.613695 -3.474282 -0.498149 106.340965 -37.811425 -141.069806 29.473487 19.292272 -57.587581 -2.339272 -48.739551 8.886311 -101.758097 83.697362 -89.434759 0.927601 -11.624271 -6.594963 -0.354596 0.866113 -0.154245 -9.723029 -53.299756 15.632452 -145.469695 84.004415 -153.614551 -0.226666 -12.853267 7.146321 -0.133653 -0.601347 -0.065487
